<svg width="32" height="32" viewBox="0 0 32 32" fill="none" xmlns="http://www.w3.org/2000/svg">
<path d="M1.41663 0.916656H0.916626V1.41666V11.8333V12.3333H1.41663H5.58329H6.08329V11.8333V6.08332H11.8333H12.3333V5.58332V1.41666V0.916656H11.8333H1.41663ZM20.1666 0.916656H19.6666V1.41666V5.58332V6.08332H20.1666H25.9166V11.8333V12.3333H26.4166H30.5833H31.0833V11.8333V1.41666V0.916656H30.5833H20.1666ZM26.4166 19.6667H25.9166V20.1667V25.9167H20.1666H19.6666V26.4167V30.5833V31.0833H20.1666H30.5833H31.0833V30.5833V20.1667V19.6667H30.5833H26.4166ZM12.3333 26.4167V25.9167H11.8333H6.08329V20.1667V19.6667H5.58329H1.41663H0.916626V20.1667V30.5833V31.0833H1.41663H11.8333H12.3333V30.5833V26.4167Z" fill="white" stroke="black"/>
</svg>
