<svg width="350" height="194" viewBox="0 0 350 194" fill="none" xmlns="http://www.w3.org/2000/svg">
<g filter="url(#filter0_d_14_3)">
<path d="M8.69956 173.175L6.90448 179H13H42H45.4094L46.3321 175.718L75.101 73.3826L86.5282 175.003L86.9777 179H91H132.5H135.575L136.692 176.135L180.216 64.5248L190.018 174.898L190.382 179H194.5H242.5H245.286L246.528 176.506L308.525 52.0125L308.528 52.006L329.025 11.0125L332.281 4.5H325H286H283.181L281.951 7.03677L224.535 125.456L209.463 8.4252L208.958 4.5H205H170.5H167.521L166.357 7.24253L116.795 124.069L101.461 8.40858L100.943 4.5H97H64H60.6779L59.6996 7.67479L8.69956 173.175Z" fill="url(#paint0_linear_14_3)" stroke="black" stroke-width="9"/>
</g>
<defs>
<filter id="filter0_d_14_3" x="0.80896" y="0" width="348.753" height="193.5" filterUnits="userSpaceOnUse" color-interpolation-filters="sRGB">
<feFlood flood-opacity="0" result="BackgroundImageFix"/>
<feColorMatrix in="SourceAlpha" type="matrix" values="0 0 0 0 0 0 0 0 0 0 0 0 0 0 0 0 0 0 127 0" result="hardAlpha"/>
<feOffset dx="10" dy="10"/>
<feComposite in2="hardAlpha" operator="out"/>
<feColorMatrix type="matrix" values="0 0 0 0 0 0 0 0 0 0 0 0 0 0 0 0 0 0 1 0"/>
<feBlend mode="normal" in2="BackgroundImageFix" result="effect1_dropShadow_14_3"/>
<feBlend mode="normal" in="SourceGraphic" in2="effect1_dropShadow_14_3" result="shape"/>
</filter>
<linearGradient id="paint0_linear_14_3" x1="218.519" y1="40.7468" x2="115.149" y2="193.833" gradientUnits="userSpaceOnUse">
<stop stop-color="#00C2FF"/>
<stop offset="1" stop-color="#236EFF"/>
</linearGradient>
</defs>
</svg>
